# This file uses meters as units for non-parametric coordinates.

mtllib FBX_Env_Grass_Tall.mtl
g default
v -8.711964 -2.568590 2.688522
v -3.332890 -2.568590 9.682156
v -47.133278 57.796906 32.239857
v -41.754208 57.796906 39.233482
v -35.997890 53.903465 34.806084
v -41.376961 53.903465 27.812454
v -29.127804 48.632629 29.522026
v -34.506874 48.632629 22.528399
v -22.251888 43.305187 24.233498
v -27.630964 43.305187 17.239870
v -16.157597 37.389397 19.546137
v -21.536669 37.389397 12.552509
v -11.419758 30.610935 15.902082
v -16.798832 30.610935 8.908453
v -8.207718 23.021736 13.431576
v -13.586792 23.021736 6.437946
v -6.238316 14.861762 11.916834
v -11.617386 14.861762 4.923204
v -4.876126 6.323576 10.869118
v -10.255199 6.323576 3.875492
v -2.916958 -2.675914 -1.527176
v 3.302471 -2.675914 -1.527176
v -2.916958 56.175087 -11.060343
v 3.302471 56.175087 -11.060343
v -1.281277 -3.453822 -11.639954
v -5.930058 -3.390705 -5.462349
v -21.302197 67.810867 -27.434246
v -25.950977 67.873985 -21.256638
v -23.114307 60.333179 -19.044933
v -18.465525 60.270061 -25.222542
v -19.892986 52.773407 -16.543583
v -15.244198 52.710289 -22.721188
v -16.617199 45.088581 -13.999966
v -11.968414 45.025463 -20.177574
v -13.593021 37.233868 -11.643955
v -8.944241 37.170750 -17.821564
v -11.049301 29.225349 -9.647928
v -6.400517 29.162231 -15.825531
v -9.096672 21.114712 -8.095661
v -4.447892 21.051596 -14.273270
v -7.709717 12.955466 -6.968588
v -3.060932 12.892348 -13.146193
v -6.736176 4.781291 -6.152462
v -2.087395 4.718174 -12.330067
v 0.021583 -3.985332 8.301998
v 7.119331 -3.985332 1.908165
v 23.382015 82.777649 34.234268
v 30.479765 82.777649 27.840446
v 27.265177 73.640121 24.271950
v 20.167431 73.640121 30.665775
v 23.652082 64.502319 20.261074
v 16.554333 64.502319 26.654896
v 19.978004 55.213444 16.182503
v 12.880257 55.213444 22.576330
v 16.557808 45.699718 12.385763
v 9.460060 45.699718 18.779591
v 13.628757 35.967228 9.134244
v 6.531009 35.967232 15.528069
v 11.307201 26.073116 6.557098
v 4.209453 26.073116 12.950926
v 9.568840 16.084965 4.627356
v 2.471092 16.084965 11.021181
v 8.257473 6.053509 3.171616
v 1.159725 6.053509 9.565441
v 4.683849 -2.847323 -7.017174
v 11.705387 -2.581174 -2.720032
v 21.039875 85.800774 -39.233482
v 28.061413 86.066925 -34.936340
v 25.158020 76.956970 -29.627960
v 18.136486 76.690819 -33.925102
v 21.460728 68.340958 -23.052937
v 14.439198 68.074806 -27.350079
v 17.967226 59.431103 -16.792706
v 10.945694 59.164955 -21.089844
v 15.405323 49.898396 -12.016132
v 8.383793 49.632248 -16.313271
v 13.909824 39.846619 -8.949915
v 6.888294 39.580471 -13.247053
v 13.087471 29.422264 -6.960541
v 6.065937 29.156115 -11.257683
v 12.456154 18.774223 -5.269472
v 5.434623 18.508074 -9.566610
v 11.979511 8.106733 -3.829926
v 4.957977 7.840584 -8.127064
v -10.855328 -2.642774 -2.174957
v -9.610210 -2.793776 -5.681175
v -31.359299 34.424034 -11.052618
v -30.114185 34.273033 -14.558838
v -27.019047 30.627567 -13.302700
v -28.264160 30.778568 -9.796484
v -23.322887 27.307156 -11.847134
v -24.568005 27.458157 -8.340919
v -19.767284 23.829327 -10.434698
v -21.012398 23.980331 -6.928482
v -16.913380 19.950918 -9.254198
v -18.158501 20.101921 -5.747982
v -14.878666 15.699837 -8.348555
v -16.123783 15.850840 -4.842340
v -13.357346 11.193617 -7.614239
v -14.602459 11.344620 -4.108025
v -11.972034 6.562757 -6.922853
v -13.217152 6.713759 -3.416639
v -10.710125 1.902571 -6.274029
v -11.955242 2.053574 -2.767811
v -3.320042 -0.926973 5.236851
v -0.086300 -0.884331 5.123390
v -3.320042 28.109671 16.150002
v -0.086300 28.152313 16.036545
v 10.244652 -2.599154 -1.213959
v 11.443249 -2.593347 2.924637
v 17.685970 37.966686 -3.425991
v 18.884565 37.972492 0.712601
v -5.994595 -2.596343 2.942162
v -8.229549 -2.755485 -2.859642
v -19.045134 55.474388 6.376583
v -21.280087 55.315247 0.574780
vt 0.429182 0.000000
vt 0.533504 0.000000
vt 0.429182 1.000000
vt 0.533504 1.000000
vt 0.533504 0.888889
vt 0.429182 0.888889
vt 0.533504 0.777778
vt 0.429182 0.777778
vt 0.533504 0.666667
vt 0.429182 0.666667
vt 0.533504 0.555556
vt 0.429182 0.555556
vt 0.533504 0.444444
vt 0.429182 0.444444
vt 0.533504 0.333333
vt 0.429182 0.333333
vt 0.533504 0.222222
vt 0.429182 0.222222
vt 0.533504 0.111111
vt 0.429182 0.111111
vt 0.429182 0.000000
vt 0.533504 0.000000
vt 0.533504 1.000000
vt 0.429182 1.000000
vt 0.429182 0.000000
vt 0.533504 0.000000
vt 0.533504 0.111111
vt 0.429182 0.111111
vt 0.429182 0.888889
vt 0.533504 0.888889
vt 0.533504 1.000000
vt 0.429182 1.000000
vt 0.429182 0.777778
vt 0.533504 0.777778
vt 0.429182 0.666667
vt 0.533504 0.666667
vt 0.429182 0.555556
vt 0.533504 0.555556
vt 0.429182 0.444444
vt 0.533504 0.444444
vt 0.429182 0.333333
vt 0.533504 0.333333
vt 0.429182 0.222222
vt 0.533504 0.222222
vt 0.429182 0.000000
vt 0.533504 0.000000
vt 0.533504 0.111111
vt 0.429182 0.111111
vt 0.429182 0.888889
vt 0.533504 0.888889
vt 0.533504 1.000000
vt 0.429182 1.000000
vt 0.429182 0.777778
vt 0.533504 0.777778
vt 0.429182 0.666667
vt 0.533504 0.666667
vt 0.429182 0.555556
vt 0.533504 0.555556
vt 0.429182 0.444444
vt 0.533504 0.444444
vt 0.429182 0.333333
vt 0.533504 0.333333
vt 0.429182 0.222222
vt 0.533504 0.222222
vt 0.429182 0.000000
vt 0.533504 0.000000
vt 0.533504 0.111111
vt 0.429182 0.111111
vt 0.429182 0.888889
vt 0.533504 0.888889
vt 0.533504 1.000000
vt 0.429182 1.000000
vt 0.429182 0.777778
vt 0.533504 0.777778
vt 0.429182 0.666667
vt 0.533504 0.666667
vt 0.429182 0.555556
vt 0.533504 0.555556
vt 0.429182 0.444444
vt 0.533504 0.444444
vt 0.429182 0.333333
vt 0.533504 0.333333
vt 0.429182 0.222222
vt 0.533504 0.222222
vt 0.429182 0.000000
vt 0.533504 0.000000
vt 0.533504 0.111111
vt 0.429182 0.111111
vt 0.429182 0.888889
vt 0.533504 0.888889
vt 0.533504 1.000000
vt 0.429182 1.000000
vt 0.429182 0.777778
vt 0.533504 0.777778
vt 0.429182 0.666667
vt 0.533504 0.666667
vt 0.429182 0.555556
vt 0.533504 0.555556
vt 0.429182 0.444444
vt 0.533504 0.444444
vt 0.429182 0.333333
vt 0.533504 0.333333
vt 0.429182 0.222222
vt 0.533504 0.222222
vt 0.429182 0.000000
vt 0.533504 0.000000
vt 0.533504 1.000000
vt 0.429182 1.000000
vt 0.429182 0.000000
vt 0.533504 0.000000
vt 0.533504 1.000000
vt 0.429182 1.000000
vt 0.429182 0.000000
vt 0.533504 0.000000
vt 0.533504 1.000000
vt 0.429182 1.000000
vn -0.774317 -0.213880 0.595557
vn -0.774317 -0.213880 0.595557
vn -0.775693 -0.205788 0.596616
vn -0.775693 -0.205788 0.596616
vn -0.395280 -0.866789 0.304025
vn -0.395280 -0.866789 0.304025
vn -0.374540 -0.881325 0.288073
vn -0.374540 -0.881325 0.288073
vn -0.413350 -0.853268 0.317923
vn -0.413350 -0.853268 0.317923
vn -0.448894 -0.824189 0.345262
vn -0.448894 -0.824189 0.345262
vn -0.539475 -0.732665 0.414932
vn -0.539475 -0.732665 0.414932
vn -0.649966 -0.572390 0.499914
vn -0.649966 -0.572390 0.499914
vn -0.732103 -0.383347 0.563089
vn -0.732103 -0.383347 0.563089
vn -0.768683 -0.244094 0.591224
vn -0.768683 -0.244094 0.591224
vn 0.000000 0.159904 0.987133
vn 0.000000 0.159904 0.987133
vn 0.000000 0.159904 0.987133
vn 0.000000 0.159904 0.987133
vn -0.793037 -0.128514 -0.595464
vn -0.793036 -0.128514 -0.595464
vn -0.791744 -0.140968 -0.594364
vn -0.791744 -0.140968 -0.594364
vn -0.714547 -0.453040 -0.533083
vn -0.714547 -0.453040 -0.533083
vn -0.723324 -0.430454 -0.539918
vn -0.723324 -0.430454 -0.539918
vn -0.705547 -0.474799 -0.526089
vn -0.705547 -0.474799 -0.526089
vn -0.713036 -0.456786 -0.531908
vn -0.713036 -0.456786 -0.531908
vn -0.731902 -0.406856 -0.546615
vn -0.731902 -0.406856 -0.546615
vn -0.754579 -0.334730 -0.564417
vn -0.754579 -0.334730 -0.564417
vn -0.773998 -0.254362 -0.579851
vn -0.773998 -0.254362 -0.579851
vn -0.786319 -0.183813 -0.589844
vn -0.786319 -0.183813 -0.589844
vn 0.659903 -0.167012 0.732554
vn 0.659903 -0.167012 0.732554
vn 0.658446 -0.179391 0.730937
vn 0.658446 -0.179391 0.730937
vn 0.584420 -0.487403 0.648762
vn 0.584420 -0.487403 0.648762
vn 0.592448 -0.465266 0.657673
vn 0.592448 -0.465266 0.657673
vn 0.576231 -0.508702 0.639672
vn 0.576231 -0.508702 0.639672
vn 0.583043 -0.491071 0.647233
vn 0.583043 -0.491071 0.647233
vn 0.600340 -0.442108 0.666433
vn 0.600339 -0.442108 0.666433
vn 0.621495 -0.371156 0.689918
vn 0.621495 -0.371156 0.689918
vn 0.640172 -0.291811 0.710652
vn 0.640172 -0.291811 0.710652
vn 0.652613 -0.221930 0.724461
vn 0.652613 -0.221930 0.724461
vn -0.522103 0.101332 0.846841
vn -0.522103 0.101332 0.846841
vn -0.521560 0.119195 0.844848
vn -0.521560 0.119195 0.844848
vn -0.431195 0.607675 0.666935
vn -0.431195 0.607675 0.666935
vn -0.450289 0.552312 0.701564
vn -0.450289 0.552311 0.701564
vn -0.417720 0.642137 0.642783
vn -0.417720 0.642137 0.642783
vn -0.446879 0.562849 0.695341
vn -0.446880 0.562849 0.695341
vn -0.487414 0.409756 0.771056
vn -0.487414 0.409756 0.771056
vn -0.511184 0.260118 0.819164
vn -0.511184 0.260118 0.819164
vn -0.518310 0.181710 0.835665
vn -0.518310 0.181710 0.835665
vn -0.520196 0.150510 0.840680
vn -0.520196 0.150510 0.840680
vn 0.914862 0.253899 0.313948
vn 0.914862 0.253898 0.313948
vn 0.910644 0.271235 0.311704
vn 0.910644 0.271235 0.311704
vn 0.660317 0.722930 0.203355
vn 0.660317 0.722930 0.203355
vn 0.704513 0.674358 0.221141
vn 0.704513 0.674358 0.221141
vn 0.629966 0.752695 0.191295
vn 0.629966 0.752695 0.191295
vn 0.696504 0.683670 0.217896
vn 0.696504 0.683670 0.217896
vn 0.796789 0.545723 0.259451
vn 0.796789 0.545722 0.259451
vn 0.866479 0.406194 0.290208
vn 0.866479 0.406194 0.290208
vn 0.893471 0.331505 0.303009
vn 0.893471 0.331505 0.303009
vn 0.902514 0.301504 0.307513
vn 0.902514 0.301504 0.307513
vn 0.037456 -0.351566 0.935413
vn 0.037456 -0.351566 0.935413
vn 0.037456 -0.351566 0.935413
vn 0.037456 -0.351566 0.935413
vn -0.943480 0.187956 0.272981
vn -0.943480 0.187956 0.272981
vn -0.943480 0.187956 0.272981
vn -0.943480 0.187956 0.272982
vn 0.907165 0.224904 -0.355625
vn 0.907166 0.224904 -0.355625
vn 0.907165 0.224904 -0.355625
vn 0.907166 0.224904 -0.355625
s 1
g MESH_Env_GrassPatch_Tall
usemtl phong2SG
f 1/1/1 2/2/2 19/19/3 20/20/4
f 6/6/5 5/5/6 4/4/7 3/3/8
f 8/8/9 7/7/10 5/5/6 6/6/5
f 10/10/11 9/9/12 7/7/10 8/8/9
f 12/12/13 11/11/14 9/9/12 10/10/11
f 14/14/15 13/13/16 11/11/14 12/12/13
f 16/16/17 15/15/18 13/13/16 14/14/15
f 18/18/19 17/17/20 15/15/18 16/16/17
f 20/20/4 19/19/3 17/17/20 18/18/19
s off
f 21/21/21 22/22/22 24/23/23 23/24/24
s 3
f 25/25/25 26/26/26 43/27/27 44/28/28
f 30/29/29 29/30/30 28/31/31 27/32/32
f 32/33/33 31/34/34 29/30/30 30/29/29
f 34/35/35 33/36/36 31/34/34 32/33/33
f 36/37/37 35/38/38 33/36/36 34/35/35
f 38/39/39 37/40/40 35/38/38 36/37/37
f 40/41/41 39/42/42 37/40/40 38/39/39
f 42/43/43 41/44/44 39/42/42 40/41/41
f 44/28/28 43/27/27 41/44/44 42/43/43
s 5
f 45/45/45 46/46/46 63/47/47 64/48/48
f 50/49/49 49/50/50 48/51/51 47/52/52
f 52/53/53 51/54/54 49/50/50 50/49/49
f 54/55/55 53/56/56 51/54/54 52/53/53
f 56/57/57 55/58/58 53/56/56 54/55/55
f 58/59/59 57/60/60 55/58/58 56/57/57
f 60/61/61 59/62/62 57/60/60 58/59/59
f 62/63/63 61/64/64 59/62/62 60/61/61
f 64/48/48 63/47/47 61/64/64 62/63/63
s 7
f 65/65/65 66/66/66 83/67/67 84/68/68
f 70/69/69 69/70/70 68/71/71 67/72/72
f 72/73/73 71/74/74 69/70/70 70/69/69
f 74/75/75 73/76/76 71/74/74 72/73/73
f 76/77/77 75/78/78 73/76/76 74/75/75
f 78/79/79 77/80/80 75/78/78 76/77/77
f 80/81/81 79/82/82 77/80/80 78/79/79
f 82/83/83 81/84/84 79/82/82 80/81/81
f 84/68/68 83/67/67 81/84/84 82/83/83
s 9
f 85/85/85 86/86/86 103/87/87 104/88/88
f 90/89/89 89/90/90 88/91/91 87/92/92
f 92/93/93 91/94/94 89/90/90 90/89/89
f 94/95/95 93/96/96 91/94/94 92/93/93
f 96/97/97 95/98/98 93/96/96 94/95/95
f 98/99/99 97/100/100 95/98/98 96/97/97
f 100/101/101 99/102/102 97/100/100 98/99/99
f 102/103/103 101/104/104 99/102/102 100/101/101
f 104/88/88 103/87/87 101/104/104 102/103/103
s off
f 105/105/105 106/106/106 108/107/107 107/108/108
f 109/109/109 110/110/110 112/111/111 111/112/112
f 113/113/113 114/114/114 116/115/115 115/116/116
