# This file uses meters as units for non-parametric coordinates.

mtllib Grass_tall.mtl
g default
v 2.827022 0.802414 475.224670
v -0.134105 0.826717 473.223572
v -10.840755 66.019569 493.650269
v -11.397535 66.024139 493.274017
v -3.508470 49.313625 480.533356
v -2.150242 49.302479 481.451233
v 0.622992 23.267469 473.239655
v 2.782670 23.249744 474.699127
v 9.722198 -1.188332 460.854431
v 13.186432 -1.212051 463.336456
v 31.393742 73.784164 434.294098
v 32.045120 73.779709 434.760803
v 21.030624 55.533066 450.949890
v 19.441628 55.543945 449.811401
v 13.956390 25.489750 461.526703
v 11.429775 25.507050 459.716461
v -4.667285 -0.485317 468.611237
v -5.311823 -0.606350 464.400330
v -33.002026 76.929108 468.972137
v -33.123219 76.906357 468.180359
v -15.290958 57.137154 465.435425
v -14.995317 57.192673 467.366943
v -5.105650 26.166107 464.182953
v -4.635561 26.254381 467.254150
v 10.948420 0.458767 478.349762
v 7.241514 0.458767 482.150116
v 48.149632 87.738892 517.647095
v 47.452625 87.738892 518.361694
v 27.580879 68.272659 499.982147
v 29.281185 68.272659 498.238983
v 12.446899 33.150131 486.223877
v 15.150505 33.150131 483.452118
v -2.654421 0.084393 457.656067
v 2.654421 0.084393 457.656067
v -0.499109 95.319290 419.293335
v 0.499109 95.319290 419.293335
v 1.217546 71.516159 442.628326
v -1.217546 71.516159 442.628326
v 1.935984 33.417725 456.767334
v -1.935984 33.417725 456.767334
vt 0.000000 0.000000
vt 1.000000 0.000000
vt 0.000000 1.000000
vt 1.000000 1.000000
vt 1.000000 0.666667
vt 0.000000 0.666667
vt 1.000000 0.333333
vt 0.000000 0.333333
vt 0.000000 0.000000
vt 1.000000 0.000000
vt 1.000000 0.333333
vt 0.000000 0.333333
vt 0.000000 0.666667
vt 1.000000 0.666667
vt 1.000000 1.000000
vt 0.000000 1.000000
vt 0.000000 0.000000
vt 1.000000 0.000000
vt 1.000000 0.333333
vt 0.000000 0.333333
vt 0.000000 0.666667
vt 1.000000 0.666667
vt 1.000000 1.000000
vt 0.000000 1.000000
vt 0.000000 0.000000
vt 1.000000 0.000000
vt 1.000000 0.333333
vt 0.000000 0.333333
vt 0.000000 0.666667
vt 1.000000 0.666667
vt 1.000000 1.000000
vt 0.000000 1.000000
vt 0.000000 0.000000
vt 1.000000 0.000000
vt 1.000000 0.333333
vt 0.000000 0.333333
vt 0.000000 0.666667
vt 1.000000 0.666667
vt 1.000000 1.000000
vt 0.000000 1.000000
vn 0.559722 -0.018290 -0.828478
vn 0.559722 -0.018290 -0.828478
vn 0.555969 0.128956 -0.821139
vn 0.555969 0.128956 -0.821139
vn 0.509721 0.423055 -0.749139
vn 0.509721 0.423054 -0.749139
vn 0.420792 0.667244 -0.614589
vn 0.420792 0.667244 -0.614589
vn -0.580583 0.071711 0.811037
vn -0.580583 0.071711 0.811037
vn -0.567469 0.217625 0.794114
vn -0.567469 0.217625 0.794115
vn -0.501159 0.502837 0.704269
vn -0.501159 0.502836 0.704269
vn -0.393791 0.731530 0.556590
vn -0.393792 0.731530 0.556590
vn 0.988487 -0.008839 -0.151046
vn 0.988487 -0.008839 -0.151046
vn 0.978391 0.138270 -0.153730
vn 0.978391 0.138270 -0.153730
vn 0.889822 0.431434 -0.148599
vn 0.889822 0.431434 -0.148599
vn 0.727106 0.673977 -0.130658
vn 0.727106 0.673977 -0.130658
vn -0.701821 0.197053 -0.684557
vn -0.701821 0.197053 -0.684557
vn -0.673443 0.339102 -0.656875
vn -0.673443 0.339102 -0.656875
vn -0.568379 0.607941 -0.554395
vn -0.568379 0.607941 -0.554395
vn -0.418053 0.811762 -0.407768
vn -0.418053 0.811762 -0.407768
vn 0.000000 0.026653 0.999645
vn 0.000000 0.026653 0.999645
vn 0.000000 0.173386 0.984854
vn 0.000000 0.173386 0.984854
vn 0.000000 0.463349 0.886176
vn 0.000000 0.463349 0.886176
vn 0.000000 0.700050 0.714094
vn 0.000000 0.700050 0.714094
s 1
g Grass_Tall
usemtl initialShadingGroup
f 1/1/1 2/2/2 7/7/3 8/8/4
f 6/6/5 5/5/6 4/4/7 3/3/8
f 8/8/4 7/7/3 5/5/6 6/6/5
s 2
f 9/9/9 10/10/10 15/11/11 16/12/12
f 14/13/13 13/14/14 12/15/15 11/16/16
f 16/12/12 15/11/11 13/14/14 14/13/13
s 3
f 17/17/17 18/18/18 23/19/19 24/20/20
f 22/21/21 21/22/22 20/23/23 19/24/24
f 24/20/20 23/19/19 21/22/22 22/21/21
s 4
f 25/25/25 26/26/26 31/27/27 32/28/28
f 30/29/29 29/30/30 28/31/31 27/32/32
f 32/28/28 31/27/27 29/30/30 30/29/29
s 5
f 33/33/33 34/34/34 39/35/35 40/36/36
f 38/37/37 37/38/38 36/39/39 35/40/40
f 40/36/36 39/35/35 37/38/38 38/37/37
